<?xml version="1.0" encoding="UTF-8" standalone="no"?>
<svg
   width="353.90mm"
   height="642.20mm"
   viewBox="0.0 0.0 353.90 642.20"
   version="1.1"
   id="svg481"
   sodipodi:docname="ElectronicsBox.svg"
   inkscape:version="1.2.1 (9c6d41e410, 2022-07-14)"
   xmlns:inkscape="http://www.inkscape.org/namespaces/inkscape"
   xmlns:sodipodi="http://sodipodi.sourceforge.net/DTD/sodipodi-0.dtd"
   xmlns="http://www.w3.org/2000/svg"
   xmlns:svg="http://www.w3.org/2000/svg"
   xmlns:rdf="http://www.w3.org/1999/02/22-rdf-syntax-ns#"
   xmlns:cc="http://creativecommons.org/ns#"
   xmlns:dc="http://purl.org/dc/elements/1.1/"
   xmlns:xhtml="http://www.w3.org/1999/xhtml">
  <defs
     id="defs485">
    <rect
       x="218.32352"
       y="886.02942"
       width="544.25959"
       height="99.794128"
       id="rect1841" />
    <rect
       x="912.67229"
       y="398.08216"
       width="170.8987"
       height="53.287002"
       id="rect1748" />
    <rect
       x="98.812396"
       y="381.42703"
       width="719.83137"
       height="155.13623"
       id="rect988" />
    <rect
       x="912.6723"
       y="398.08215"
       width="170.8987"
       height="53.287003"
       id="rect1748-7" />
    <rect
       x="912.6723"
       y="398.08215"
       width="170.8987"
       height="53.287003"
       id="rect1748-3" />
  </defs>
  <sodipodi:namedview
     id="namedview483"
     pagecolor="#ffffff"
     bordercolor="#666666"
     borderopacity="1.0"
     inkscape:showpageshadow="2"
     inkscape:pageopacity="0.0"
     inkscape:pagecheckerboard="0"
     inkscape:deskcolor="#d1d1d1"
     inkscape:document-units="mm"
     showgrid="false"
     inkscape:zoom="1"
     inkscape:cx="502.5"
     inkscape:cy="1573"
     inkscape:window-width="1920"
     inkscape:window-height="1011"
     inkscape:window-x="0"
     inkscape:window-y="32"
     inkscape:window-maximized="1"
     inkscape:current-layer="g1814" />
  <!--
ElectronicsBox - Closed box with screw on top and mounting holes

Created with Boxes.py (https://festi.info/boxes.py)
Creation date: 2023-03-01 22:58:49
Command line (remove spaces between dashes): boxes ElectronicsBox - -x=120 - -y=200.0 - -h=80 - -outside=0 - -labels=0 - -reference=0
Url: http://www.festi.info/boxes.py/ElectronicsBox?FingerJoint_angle=90.0&FingerJoint_style=rectangular&FingerJoint_surroundingspaces=2.0&FingerJoint_bottom_lip=0.0&FingerJoint_edge_width=1.0&FingerJoint_extra_length=0.0&FingerJoint_finger=2.0&FingerJoint_play=0.0&FingerJoint_space=2.0&FingerJoint_width=1.0&x=120&y=200.0&h=80&outside=0&triangle=25.0&d1=2.0&d2=3.0&d3=3.0&outsidemounts=0&outsidemounts=1&holedist=7&thickness=3.0&format=svg&tabs=0.0&qr_code=0&debug=0&labels=0&reference=0&inner_corners=loop&burn=0.1&language=en&render=1
Url short: http://www.festi.info/boxes.py/ElectronicsBox?x=120&y=200.0&h=80&outside=0&labels=0&reference=0
SettingsUrl: http://www.festi.info/boxes.py/ElectronicsBox?FingerJoint_angle=90.0&FingerJoint_style=rectangular&FingerJoint_surroundingspaces=2.0&FingerJoint_bottom_lip=0.0&FingerJoint_edge_width=1.0&FingerJoint_extra_length=0.0&FingerJoint_finger=2.0&FingerJoint_play=0.0&FingerJoint_space=2.0&FingerJoint_width=1.0&x=120&y=200.0&h=80&outside=0&triangle=25.0&d1=2.0&d2=3.0&d3=3.0&outsidemounts=0&outsidemounts=1&holedist=7&thickness=3.0&format=svg&tabs=0.0&qr_code=0&debug=0&labels=0&reference=0&inner_corners=loop&burn=0.1&language=en
SettingsUrl short: http://www.festi.info/boxes.py/ElectronicsBox?x=120&y=200.0&h=80&outside=0&labels=0&reference=0
-->
  <title
     id="title346">ElectronicsBox</title>
  <metadata
     id="metadata348">
    <rdf:RDF>
      <cc:Work>
        <dc:title>Box - ElectronicsBox</dc:title>
        <dc:date>2023-03-01 22:58:49</dc:date>
        <dc:source>http://www.festi.info/boxes.py/ElectronicsBox?FingerJoint_angle=90.0&amp;FingerJoint_style=rectangular&amp;FingerJoint_surroundingspaces=2.0&amp;FingerJoint_bottom_lip=0.0&amp;FingerJoint_edge_width=1.0&amp;FingerJoint_extra_length=0.0&amp;FingerJoint_finger=2.0&amp;FingerJoint_play=0.0&amp;FingerJoint_space=2.0&amp;FingerJoint_width=1.0&amp;x=120&amp;y=200.0&amp;h=80&amp;outside=0&amp;triangle=25.0&amp;d1=2.0&amp;d2=3.0&amp;d3=3.0&amp;outsidemounts=0&amp;outsidemounts=1&amp;holedist=7&amp;thickness=3.0&amp;format=svg&amp;tabs=0.0&amp;qr_code=0&amp;debug=0&amp;labels=0&amp;reference=0&amp;inner_corners=loop&amp;burn=0.1&amp;language=en&amp;render=1</dc:source>
        <dc:source>http://www.festi.info/boxes.py/ElectronicsBox?x=120&amp;y=200.0&amp;h=80&amp;outside=0&amp;labels=0&amp;reference=0</dc:source>
        <dc:description>Closed box with screw on top and mounting holes

Created with Boxes.py (https://festi.info/boxes.py)
Command line: boxes ElectronicsBox --FingerJoint_angle=90.0 --FingerJoint_style=rectangular --FingerJoint_surroundingspaces=2.0 --FingerJoint_bottom_lip=0.0 --FingerJoint_edge_width=1.0 --FingerJoint_extra_length=0.0 --FingerJoint_finger=2.0 --FingerJoint_play=0.0 --FingerJoint_space=2.0 --FingerJoint_width=1.0 --x=120 --y=200.0 --h=80 --outside=0 --triangle=25.0 --d1=2.0 --d2=3.0 --d3=3.0 --outsidemounts=0 --outsidemounts=1 --holedist=7 --thickness=3.0 --format=svg --tabs=0.0 --qr_code=0 --debug=0 --labels=0 --reference=0 --inner_corners=loop --burn=0.1
Command line short: boxes ElectronicsBox --x=120 --y=200.0 --h=80 --outside=0 --labels=0 --reference=0
Url: http://www.festi.info/boxes.py/ElectronicsBox?FingerJoint_angle=90.0&amp;FingerJoint_style=rectangular&amp;FingerJoint_surroundingspaces=2.0&amp;FingerJoint_bottom_lip=0.0&amp;FingerJoint_edge_width=1.0&amp;FingerJoint_extra_length=0.0&amp;FingerJoint_finger=2.0&amp;FingerJoint_play=0.0&amp;FingerJoint_space=2.0&amp;FingerJoint_width=1.0&amp;x=120&amp;y=200.0&amp;h=80&amp;outside=0&amp;triangle=25.0&amp;d1=2.0&amp;d2=3.0&amp;d3=3.0&amp;outsidemounts=0&amp;outsidemounts=1&amp;holedist=7&amp;thickness=3.0&amp;format=svg&amp;tabs=0.0&amp;qr_code=0&amp;debug=0&amp;labels=0&amp;reference=0&amp;inner_corners=loop&amp;burn=0.1&amp;language=en&amp;render=1
Url short: http://www.festi.info/boxes.py/ElectronicsBox?x=120&amp;y=200.0&amp;h=80&amp;outside=0&amp;labels=0&amp;reference=0
SettingsUrl: http://www.festi.info/boxes.py/ElectronicsBox?FingerJoint_angle=90.0&amp;FingerJoint_style=rectangular&amp;FingerJoint_surroundingspaces=2.0&amp;FingerJoint_bottom_lip=0.0&amp;FingerJoint_edge_width=1.0&amp;FingerJoint_extra_length=0.0&amp;FingerJoint_finger=2.0&amp;FingerJoint_play=0.0&amp;FingerJoint_space=2.0&amp;FingerJoint_width=1.0&amp;x=120&amp;y=200.0&amp;h=80&amp;outside=0&amp;triangle=25.0&amp;d1=2.0&amp;d2=3.0&amp;d3=3.0&amp;outsidemounts=0&amp;outsidemounts=1&amp;holedist=7&amp;thickness=3.0&amp;format=svg&amp;tabs=0.0&amp;qr_code=0&amp;debug=0&amp;labels=0&amp;reference=0&amp;inner_corners=loop&amp;burn=0.1&amp;language=en
SettingsUrl short: http://www.festi.info/boxes.py/ElectronicsBox?x=120&amp;y=200.0&amp;h=80&amp;outside=0&amp;labels=0&amp;reference=0
</dc:description>
      </cc:Work>
    </rdf:RDF>
  </metadata>
  <xhtml:iframe
     class="cleanslate hidden"
     src="ElectronicsBox_files/commandline.html"
     id="cmdline_iframe"
     loading="lazy"
     style="height: 0px !important;" />
  <g
     id="p-0"
     style="fill:none;stroke-linecap:round;stroke-linejoin:round"
     transform="translate(2.4558869,-111.75103)">
    <path
       d="m 25.6,549 h -2.9 c -0.1,0 0,0.1 0,0 v -2.8 c 0,-0.1 -0.1,0 0,0 h 5.8 c 0.1,0 0,-0.1 0,0 v 2.8 c 0,0.1 0.1,0 0,0 z"
       stroke="#0000ff"
       stroke-width="0.2"
       id="path350" />
    <path
       d="m 120.6,546.2 h 2.9 c 0.1,0 0,-0.1 0,0 v 2.8 c 0,0.1 0.1,0 0,0 h -5.8 c -0.1,0 0,0.1 0,0 v -2.8 c 0,-0.1 -0.1,0 0,0 z"
       stroke="#0000ff"
       stroke-width="0.2"
       id="path352" />
    <path
       d="M 13.1,629.2 H 22 c 0.1,0 0,-0.1 0,0 v 2.9 c 0,0.055 0.045,0.1 0.1,0.1 h 6 c 0.055,0 0.1,-0.045 0.1,-0.1 v -2.9 c 0,-0.1 -0.1,0 0,0 H 34 c 0.1,0 0,-0.1 0,0 v 2.9 c 0,0.055 0.045,0.1 0.1,0.1 h 6 c 0.055,0 0.1,-0.045 0.1,-0.1 v -2.9 c 0,-0.1 -0.1,0 0,0 H 46 c 0.1,0 0,-0.1 0,0 v 2.9 c 0,0.055 0.045,0.1 0.1,0.1 h 6 c 0.055,0 0.1,-0.045 0.1,-0.1 v -2.9 c 0,-0.1 -0.1,0 0,0 H 58 c 0.1,0 0,-0.1 0,0 v 2.9 c 0,0.055 0.045,0.1 0.1,0.1 h 6 c 0.055,0 0.1,-0.045 0.1,-0.1 v -2.9 c 0,-0.1 -0.1,0 0,0 H 70 c 0.1,0 0,-0.1 0,0 v 2.9 c 0,0.055 0.045,0.1 0.1,0.1 h 6 c 0.055,0 0.1,-0.045 0.1,-0.1 v -2.9 c 0,-0.1 -0.1,0 0,0 H 82 c 0.1,0 0,-0.1 0,0 v 2.9 c 0,0.055 0.045,0.1 0.1,0.1 h 6 c 0.055,0 0.1,-0.045 0.1,-0.1 v -2.9 c 0,-0.1 -0.1,0 0,0 H 94 c 0.1,0 0,-0.1 0,0 v 2.9 c 0,0.055 0.045,0.1 0.1,0.1 h 6 c 0.055,0 0.1,-0.045 0.1,-0.1 v -2.9 c 0,-0.1 -0.1,0 0,0 h 5.8 c 0.1,0 0,-0.1 0,0 v 2.9 c 0,0.055 0.045,0.1 0.1,0.1 h 6 c 0.055,0 0.1,-0.045 0.1,-0.1 v -2.9 c 0,-0.1 -0.1,0 0,0 h 5.8 c 0.1,0 0,-0.1 0,0 v 2.9 c 0,0.055 0.045,0.1 0.1,0.1 h 6 c 0.055,0 0.1,-0.045 0.1,-0.1 v -2.9 c 0,-0.1 -0.1,0 0,0 h 8.9 3 c 0.055,0 0.1,-0.045 0.1,-0.1 v -10 c 0,-0.055 -0.045,-0.1 -0.1,-0.1 h -2.9 c -0.1,0 0,0.1 0,0 v -5.8 c 0,-0.1 -0.1,0 0,0 h 2.9 c 0.055,0 0.1,-0.045 0.1,-0.1 v -6 c 0,-0.055 -0.045,-0.1 -0.1,-0.1 h -2.9 c -0.1,0 0,0.1 0,0 v -5.8 c 0,-0.1 -0.1,0 0,0 h 2.9 c 0.055,0 0.1,-0.045 0.1,-0.1 v -6 c 0,-0.055 -0.045,-0.1 -0.1,-0.1 h -2.9 c -0.1,0 0,0.1 0,0 v -5.8 c 0,-0.1 -0.1,0 0,0 h 2.9 c 0.055,0 0.1,-0.045 0.1,-0.1 v -6 c 0,-0.055 -0.045,-0.1 -0.1,-0.1 h -2.9 c -0.1,0 0,0.1 0,0 v -5.8 c 0,-0.1 -0.1,0 0,0 h 2.9 c 0.055,0 0.1,-0.045 0.1,-0.1 v -6 c 0,-0.055 -0.045,-0.1 -0.1,-0.1 h -2.9 c -0.1,0 0,0.1 0,0 v -5.8 c 0,-0.1 -0.1,0 0,0 h 2.9 c 0.055,0 0.1,-0.045 0.1,-0.1 v -6 c 0,-0.055 -0.045,-0.1 -0.1,-0.1 h -2.9 c -0.1,0 0,0.1 0,0 v -5.8 c 0,-0.1 -0.1,0 0,0 h 2.9 c 0.055,0 0.1,-0.045 0.1,-0.1 v -10 c 0,-0.055 -0.045,-0.1 -0.1,-0.1 h -3 -120 -3 c -0.055,0 -0.1,0.045 -0.1,0.1 v 10 c 0,0.055 0.045,0.1 0.1,0.1 H 13 c 0.1,0 0,-0.1 0,0 v 5.8 c 0,0.1 0.1,0 0,0 h -2.9 c -0.055,0 -0.1,0.045 -0.1,0.1 v 6 c 0,0.055 0.045,0.1 0.1,0.1 H 13 c 0.1,0 0,-0.1 0,0 v 5.8 c 0,0.1 0.1,0 0,0 h -2.9 c -0.055,0 -0.1,0.045 -0.1,0.1 v 6 c 0,0.055 0.045,0.1 0.1,0.1 H 13 c 0.1,0 0,-0.1 0,0 v 5.8 c 0,0.1 0.1,0 0,0 h -2.9 c -0.055,0 -0.1,0.045 -0.1,0.1 v 6 c 0,0.055 0.045,0.1 0.1,0.1 H 13 c 0.1,0 0,-0.1 0,0 v 5.8 c 0,0.1 0.1,0 0,0 h -2.9 c -0.055,0 -0.1,0.045 -0.1,0.1 v 6 c 0,0.055 0.045,0.1 0.1,0.1 H 13 c 0.1,0 0,-0.1 0,0 v 5.8 c 0,0.1 0.1,0 0,0 h -2.9 c -0.055,0 -0.1,0.045 -0.1,0.1 v 6 c 0,0.055 0.045,0.1 0.1,0.1 H 13 c 0.1,0 0,-0.1 0,0 v 5.8 c 0,0.1 0.1,0 0,0 h -2.9 c -0.055,0 -0.1,0.045 -0.1,0.1 v 10 c 0,0.055 0.045,0.1 0.1,0.1 z"
       stroke="#000000"
       stroke-width="0.2"
       id="path354" />
  </g>
  <g
     id="p-1"
     style="fill:none;stroke-linecap:round;stroke-linejoin:round"
     transform="translate(2.4558869,-111.75103)">
    <path
       d="m 153.3,549 h -2.9 c -0.1,0 0,0.1 0,0 v -2.8 c 0,-0.1 -0.1,0 0,0 h 5.8 c 0.1,0 0,-0.1 0,0 v 2.8 c 0,0.1 0.1,0 0,0 z"
       stroke="#0000ff"
       stroke-width="0.2"
       id="path357" />
    <path
       d="m 328.3,546.2 h 2.9 c 0.1,0 0,-0.1 0,0 v 2.8 c 0,0.1 0.1,0 0,0 h -5.8 c -0.1,0 0,0.1 0,0 v -2.8 c 0,-0.1 -0.1,0 0,0 z"
       stroke="#0000ff"
       stroke-width="0.2"
       id="path359" />
    <path
       d="m 140.8,629.2 h 6.9 c 0.1,0 0,-0.1 0,0 v 2.9 c 0,0.055 0.045,0.1 0.1,0.1 h 6 c 0.055,0 0.1,-0.045 0.1,-0.1 v -2.9 c 0,-0.1 -0.1,0 0,0 h 5.8 c 0.1,0 0,-0.1 0,0 v 2.9 c 0,0.055 0.045,0.1 0.1,0.1 h 6 c 0.055,0 0.1,-0.045 0.1,-0.1 v -2.9 c 0,-0.1 -0.1,0 0,0 h 5.8 c 0.1,0 0,-0.1 0,0 v 2.9 c 0,0.055 0.045,0.1 0.1,0.1 h 6 c 0.055,0 0.1,-0.045 0.1,-0.1 v -2.9 c 0,-0.1 -0.1,0 0,0 h 5.8 c 0.1,0 0,-0.1 0,0 v 2.9 c 0,0.055 0.045,0.1 0.1,0.1 h 6 c 0.055,0 0.1,-0.045 0.1,-0.1 v -2.9 c 0,-0.1 -0.1,0 0,0 h 5.8 c 0.1,0 0,-0.1 0,0 v 2.9 c 0,0.055 0.045,0.1 0.1,0.1 h 6 c 0.055,0 0.1,-0.045 0.1,-0.1 v -2.9 c 0,-0.1 -0.1,0 0,0 h 5.8 c 0.1,0 0,-0.1 0,0 v 2.9 c 0,0.055 0.045,0.1 0.1,0.1 h 6 c 0.055,0 0.1,-0.045 0.1,-0.1 v -2.9 c 0,-0.1 -0.1,0 0,0 h 5.8 c 0.1,0 0,-0.1 0,0 v 2.9 c 0,0.055 0.045,0.1 0.1,0.1 h 6 c 0.055,0 0.1,-0.045 0.1,-0.1 v -2.9 c 0,-0.1 -0.1,0 0,0 h 5.8 c 0.1,0 0,-0.1 0,0 v 2.9 c 0,0.055 0.045,0.1 0.1,0.1 h 6 c 0.055,0 0.1,-0.045 0.1,-0.1 v -2.9 c 0,-0.1 -0.1,0 0,0 h 5.8 c 0.1,0 0,-0.1 0,0 v 2.9 c 0,0.055 0.045,0.1 0.1,0.1 h 6 c 0.055,0 0.1,-0.045 0.1,-0.1 v -2.9 c 0,-0.1 -0.1,0 0,0 h 5.8 c 0.1,0 0,-0.1 0,0 v 2.9 c 0,0.055 0.045,0.1 0.1,0.1 h 6 c 0.055,0 0.1,-0.045 0.1,-0.1 v -2.9 c 0,-0.1 -0.1,0 0,0 h 5.8 c 0.1,0 0,-0.1 0,0 v 2.9 c 0,0.055 0.045,0.1 0.1,0.1 h 6 c 0.055,0 0.1,-0.045 0.1,-0.1 v -2.9 c 0,-0.1 -0.1,0 0,0 h 5.8 c 0.1,0 0,-0.1 0,0 v 2.9 c 0,0.055 0.045,0.1 0.1,0.1 h 6 c 0.055,0 0.1,-0.045 0.1,-0.1 v -2.9 c 0,-0.1 -0.1,0 0,0 h 5.8 c 0.1,0 0,-0.1 0,0 v 2.9 c 0,0.055 0.045,0.1 0.1,0.1 h 6 c 0.055,0 0.1,-0.045 0.1,-0.1 v -2.9 c 0,-0.1 -0.1,0 0,0 h 5.8 c 0.1,0 0,-0.1 0,0 v 2.9 c 0,0.055 0.045,0.1 0.1,0.1 h 6 c 0.055,0 0.1,-0.045 0.1,-0.1 v -2.9 c 0,-0.1 -0.1,0 0,0 h 5.8 c 0.1,0 0,-0.1 0,0 v 2.9 c 0,0.055 0.045,0.1 0.1,0.1 h 6 c 0.055,0 0.1,-0.045 0.1,-0.1 v -2.9 c 0,-0.1 -0.1,0 0,0 h 5.8 c 0.1,0 0,-0.1 0,0 v 2.9 c 0,0.055 0.045,0.1 0.1,0.1 h 6 c 0.055,0 0.1,-0.045 0.1,-0.1 v -2.9 c 0,-0.1 -0.1,0 0,0 h 6.9 c 0.055,0 0.1,-0.045 0.1,-0.1 v -9.9 c 0,-0.1 -0.1,0 0,0 h 2.9 c 0.055,0 0.1,-0.045 0.1,-0.1 v -6 c 0,-0.055 -0.045,-0.1 -0.1,-0.1 h -2.9 c -0.1,0 0,0.1 0,0 v -5.8 c 0,-0.1 -0.1,0 0,0 h 2.9 c 0.055,0 0.1,-0.045 0.1,-0.1 v -6 c 0,-0.055 -0.045,-0.1 -0.1,-0.1 h -2.9 c -0.1,0 0,0.1 0,0 v -5.8 c 0,-0.1 -0.1,0 0,0 h 2.9 c 0.055,0 0.1,-0.045 0.1,-0.1 v -6 c 0,-0.055 -0.045,-0.1 -0.1,-0.1 h -2.9 c -0.1,0 0,0.1 0,0 v -5.8 c 0,-0.1 -0.1,0 0,0 h 2.9 c 0.055,0 0.1,-0.045 0.1,-0.1 v -6 c 0,-0.055 -0.045,-0.1 -0.1,-0.1 h -2.9 c -0.1,0 0,0.1 0,0 v -5.8 c 0,-0.1 -0.1,0 0,0 h 2.9 c 0.055,0 0.1,-0.045 0.1,-0.1 v -6 c 0,-0.055 -0.045,-0.1 -0.1,-0.1 h -2.9 c -0.1,0 0,0.1 0,0 v -5.8 c 0,-0.1 -0.1,0 0,0 h 2.9 c 0.055,0 0.1,-0.045 0.1,-0.1 v -6 c 0,-0.055 -0.045,-0.1 -0.1,-0.1 h -2.9 c -0.1,0 0,0.1 0,0 v -9.9 c 0,-0.055 -0.045,-0.1 -0.1,-0.1 h -200 c -0.055,0 -0.1,0.045 -0.1,0.1 v 9.9 c 0,0.1 0.1,0 0,0 h -2.9 c -0.055,0 -0.1,0.045 -0.1,0.1 v 6 c 0,0.055 0.045,0.1 0.1,0.1 h 2.9 c 0.1,0 0,-0.1 0,0 v 5.8 c 0,0.1 0.1,0 0,0 h -2.9 c -0.055,0 -0.1,0.045 -0.1,0.1 v 6 c 0,0.055 0.045,0.1 0.1,0.1 h 2.9 c 0.1,0 0,-0.1 0,0 v 5.8 c 0,0.1 0.1,0 0,0 h -2.9 c -0.055,0 -0.1,0.045 -0.1,0.1 v 6 c 0,0.055 0.045,0.1 0.1,0.1 h 2.9 c 0.1,0 0,-0.1 0,0 v 5.8 c 0,0.1 0.1,0 0,0 h -2.9 c -0.055,0 -0.1,0.045 -0.1,0.1 v 6 c 0,0.055 0.045,0.1 0.1,0.1 h 2.9 c 0.1,0 0,-0.1 0,0 v 5.8 c 0,0.1 0.1,0 0,0 h -2.9 c -0.055,0 -0.1,0.045 -0.1,0.1 v 6 c 0,0.055 0.045,0.1 0.1,0.1 h 2.9 c 0.1,0 0,-0.1 0,0 v 5.8 c 0,0.1 0.1,0 0,0 h -2.9 c -0.055,0 -0.1,0.045 -0.1,0.1 v 6 c 0,0.055 0.045,0.1 0.1,0.1 h 2.9 c 0.1,0 0,-0.1 0,0 v 9.9 c 0,0.055 0.045,0.1 0.1,0.1 z"
       stroke="#000000"
       stroke-width="0.2"
       id="path361" />
  </g>
  <g
     id="p-2"
     style="fill:none;stroke-linecap:round;stroke-linejoin:round"
     transform="translate(2.4558869,-111.75103)">
    <path
       d="m 153.3,458.3 h -2.9 c -0.1,0 0,0.1 0,0 v -2.8 c 0,-0.1 -0.1,0 0,0 h 5.8 c 0.1,0 0,-0.1 0,0 v 2.8 c 0,0.1 0.1,0 0,0 z"
       stroke="#0000ff"
       stroke-width="0.2"
       id="path364" />
    <path
       d="m 328.3,455.5 h 2.9 c 0.1,0 0,-0.1 0,0 v 2.8 c 0,0.1 0.1,0 0,0 h -5.8 c -0.1,0 0,0.1 0,0 v -2.8 c 0,-0.1 -0.1,0 0,0 z"
       stroke="#0000ff"
       stroke-width="0.2"
       id="path366" />
    <path
       d="m 140.8,538.5 h 6.9 c 0.1,0 0,-0.1 0,0 v 2.9 c 0,0.055 0.045,0.1 0.1,0.1 h 6 c 0.055,0 0.1,-0.045 0.1,-0.1 v -2.9 c 0,-0.1 -0.1,0 0,0 h 5.8 c 0.1,0 0,-0.1 0,0 v 2.9 c 0,0.055 0.045,0.1 0.1,0.1 h 6 c 0.055,0 0.1,-0.045 0.1,-0.1 v -2.9 c 0,-0.1 -0.1,0 0,0 h 5.8 c 0.1,0 0,-0.1 0,0 v 2.9 c 0,0.055 0.045,0.1 0.1,0.1 h 6 c 0.055,0 0.1,-0.045 0.1,-0.1 v -2.9 c 0,-0.1 -0.1,0 0,0 h 5.8 c 0.1,0 0,-0.1 0,0 v 2.9 c 0,0.055 0.045,0.1 0.1,0.1 h 6 c 0.055,0 0.1,-0.045 0.1,-0.1 v -2.9 c 0,-0.1 -0.1,0 0,0 h 5.8 c 0.1,0 0,-0.1 0,0 v 2.9 c 0,0.055 0.045,0.1 0.1,0.1 h 6 c 0.055,0 0.1,-0.045 0.1,-0.1 v -2.9 c 0,-0.1 -0.1,0 0,0 h 5.8 c 0.1,0 0,-0.1 0,0 v 2.9 c 0,0.055 0.045,0.1 0.1,0.1 h 6 c 0.055,0 0.1,-0.045 0.1,-0.1 v -2.9 c 0,-0.1 -0.1,0 0,0 h 5.8 c 0.1,0 0,-0.1 0,0 v 2.9 c 0,0.055 0.045,0.1 0.1,0.1 h 6 c 0.055,0 0.1,-0.045 0.1,-0.1 v -2.9 c 0,-0.1 -0.1,0 0,0 h 5.8 c 0.1,0 0,-0.1 0,0 v 2.9 c 0,0.055 0.045,0.1 0.1,0.1 h 6 c 0.055,0 0.1,-0.045 0.1,-0.1 v -2.9 c 0,-0.1 -0.1,0 0,0 h 5.8 c 0.1,0 0,-0.1 0,0 v 2.9 c 0,0.055 0.045,0.1 0.1,0.1 h 6 c 0.055,0 0.1,-0.045 0.1,-0.1 v -2.9 c 0,-0.1 -0.1,0 0,0 h 5.8 c 0.1,0 0,-0.1 0,0 v 2.9 c 0,0.055 0.045,0.1 0.1,0.1 h 6 c 0.055,0 0.1,-0.045 0.1,-0.1 v -2.9 c 0,-0.1 -0.1,0 0,0 h 5.8 c 0.1,0 0,-0.1 0,0 v 2.9 c 0,0.055 0.045,0.1 0.1,0.1 h 6 c 0.055,0 0.1,-0.045 0.1,-0.1 v -2.9 c 0,-0.1 -0.1,0 0,0 h 5.8 c 0.1,0 0,-0.1 0,0 v 2.9 c 0,0.055 0.045,0.1 0.1,0.1 h 6 c 0.055,0 0.1,-0.045 0.1,-0.1 v -2.9 c 0,-0.1 -0.1,0 0,0 h 5.8 c 0.1,0 0,-0.1 0,0 v 2.9 c 0,0.055 0.045,0.1 0.1,0.1 h 6 c 0.055,0 0.1,-0.045 0.1,-0.1 v -2.9 c 0,-0.1 -0.1,0 0,0 h 5.8 c 0.1,0 0,-0.1 0,0 v 2.9 c 0,0.055 0.045,0.1 0.1,0.1 h 6 c 0.055,0 0.1,-0.045 0.1,-0.1 v -2.9 c 0,-0.1 -0.1,0 0,0 h 5.8 c 0.1,0 0,-0.1 0,0 v 2.9 c 0,0.055 0.045,0.1 0.1,0.1 h 6 c 0.055,0 0.1,-0.045 0.1,-0.1 v -2.9 c 0,-0.1 -0.1,0 0,0 h 5.8 c 0.1,0 0,-0.1 0,0 v 2.9 c 0,0.055 0.045,0.1 0.1,0.1 h 6 c 0.055,0 0.1,-0.045 0.1,-0.1 v -2.9 c 0,-0.1 -0.1,0 0,0 h 6.9 c 0.055,0 0.1,-0.045 0.1,-0.1 v -9.9 c 0,-0.1 -0.1,0 0,0 h 2.9 c 0.055,0 0.1,-0.045 0.1,-0.1 v -6 c 0,-0.055 -0.045,-0.1 -0.1,-0.1 h -2.9 c -0.1,0 0,0.1 0,0 v -5.8 c 0,-0.1 -0.1,0 0,0 h 2.9 c 0.055,0 0.1,-0.045 0.1,-0.1 v -6 c 0,-0.055 -0.045,-0.1 -0.1,-0.1 h -2.9 c -0.1,0 0,0.1 0,0 v -5.8 c 0,-0.1 -0.1,0 0,0 h 2.9 c 0.055,0 0.1,-0.045 0.1,-0.1 v -6 c 0,-0.055 -0.045,-0.1 -0.1,-0.1 h -2.9 c -0.1,0 0,0.1 0,0 v -5.8 c 0,-0.1 -0.1,0 0,0 h 2.9 c 0.055,0 0.1,-0.045 0.1,-0.1 v -6 c 0,-0.055 -0.045,-0.1 -0.1,-0.1 h -2.9 c -0.1,0 0,0.1 0,0 v -5.8 c 0,-0.1 -0.1,0 0,0 h 2.9 c 0.055,0 0.1,-0.045 0.1,-0.1 v -6 c 0,-0.055 -0.045,-0.1 -0.1,-0.1 h -2.9 c -0.1,0 0,0.1 0,0 v -5.8 c 0,-0.1 -0.1,0 0,0 h 2.9 c 0.055,0 0.1,-0.045 0.1,-0.1 v -6 c 0,-0.055 -0.045,-0.1 -0.1,-0.1 h -2.9 c -0.1,0 0,0.1 0,0 v -9.9 c 0,-0.055 -0.045,-0.1 -0.1,-0.1 h -200 c -0.055,0 -0.1,0.045 -0.1,0.1 v 9.9 c 0,0.1 0.1,0 0,0 h -2.9 c -0.055,0 -0.1,0.045 -0.1,0.1 v 6 c 0,0.055 0.045,0.1 0.1,0.1 h 2.9 c 0.1,0 0,-0.1 0,0 v 5.8 c 0,0.1 0.1,0 0,0 h -2.9 c -0.055,0 -0.1,0.045 -0.1,0.1 v 6 c 0,0.055 0.045,0.1 0.1,0.1 h 2.9 c 0.1,0 0,-0.1 0,0 v 5.8 c 0,0.1 0.1,0 0,0 h -2.9 c -0.055,0 -0.1,0.045 -0.1,0.1 v 6 c 0,0.055 0.045,0.1 0.1,0.1 h 2.9 c 0.1,0 0,-0.1 0,0 v 5.8 c 0,0.1 0.1,0 0,0 h -2.9 c -0.055,0 -0.1,0.045 -0.1,0.1 v 6 c 0,0.055 0.045,0.1 0.1,0.1 h 2.9 c 0.1,0 0,-0.1 0,0 v 5.8 c 0,0.1 0.1,0 0,0 h -2.9 c -0.055,0 -0.1,0.045 -0.1,0.1 v 6 c 0,0.055 0.045,0.1 0.1,0.1 h 2.9 c 0.1,0 0,-0.1 0,0 v 5.8 c 0,0.1 0.1,0 0,0 h -2.9 c -0.055,0 -0.1,0.045 -0.1,0.1 v 6 c 0,0.055 0.045,0.1 0.1,0.1 h 2.9 c 0.1,0 0,-0.1 0,0 v 9.9 c 0,0.055 0.045,0.1 0.1,0.1 z"
       stroke="#000000"
       stroke-width="0.2"
       id="path368" />
  </g>
  <g
     id="p-3"
     style="fill:none;stroke-linecap:round;stroke-linejoin:round"
     transform="translate(2.4558869,-111.75103)">
    <path
       d="m 25.6,458.3 h -2.9 c -0.1,0 0,0.1 0,0 v -2.8 c 0,-0.1 -0.1,0 0,0 h 5.8 c 0.1,0 0,-0.1 0,0 v 2.8 c 0,0.1 0.1,0 0,0 z"
       stroke="#0000ff"
       stroke-width="0.2"
       id="path371" />
    <path
       d="m 120.6,455.5 h 2.9 c 0.1,0 0,-0.1 0,0 v 2.8 c 0,0.1 0.1,0 0,0 h -5.8 c -0.1,0 0,0.1 0,0 v -2.8 c 0,-0.1 -0.1,0 0,0 z"
       stroke="#0000ff"
       stroke-width="0.2"
       id="path373" />
    <path
       d="M 13.1,538.5 H 22 c 0.1,0 0,-0.1 0,0 v 2.9 c 0,0.055 0.045,0.1 0.1,0.1 h 6 c 0.055,0 0.1,-0.045 0.1,-0.1 v -2.9 c 0,-0.1 -0.1,0 0,0 H 34 c 0.1,0 0,-0.1 0,0 v 2.9 c 0,0.055 0.045,0.1 0.1,0.1 h 6 c 0.055,0 0.1,-0.045 0.1,-0.1 v -2.9 c 0,-0.1 -0.1,0 0,0 H 46 c 0.1,0 0,-0.1 0,0 v 2.9 c 0,0.055 0.045,0.1 0.1,0.1 h 6 c 0.055,0 0.1,-0.045 0.1,-0.1 v -2.9 c 0,-0.1 -0.1,0 0,0 H 58 c 0.1,0 0,-0.1 0,0 v 2.9 c 0,0.055 0.045,0.1 0.1,0.1 h 6 c 0.055,0 0.1,-0.045 0.1,-0.1 v -2.9 c 0,-0.1 -0.1,0 0,0 H 70 c 0.1,0 0,-0.1 0,0 v 2.9 c 0,0.055 0.045,0.1 0.1,0.1 h 6 c 0.055,0 0.1,-0.045 0.1,-0.1 v -2.9 c 0,-0.1 -0.1,0 0,0 H 82 c 0.1,0 0,-0.1 0,0 v 2.9 c 0,0.055 0.045,0.1 0.1,0.1 h 6 c 0.055,0 0.1,-0.045 0.1,-0.1 v -2.9 c 0,-0.1 -0.1,0 0,0 H 94 c 0.1,0 0,-0.1 0,0 v 2.9 c 0,0.055 0.045,0.1 0.1,0.1 h 6 c 0.055,0 0.1,-0.045 0.1,-0.1 v -2.9 c 0,-0.1 -0.1,0 0,0 h 5.8 c 0.1,0 0,-0.1 0,0 v 2.9 c 0,0.055 0.045,0.1 0.1,0.1 h 6 c 0.055,0 0.1,-0.045 0.1,-0.1 v -2.9 c 0,-0.1 -0.1,0 0,0 h 5.8 c 0.1,0 0,-0.1 0,0 v 2.9 c 0,0.055 0.045,0.1 0.1,0.1 h 6 c 0.055,0 0.1,-0.045 0.1,-0.1 v -2.9 c 0,-0.1 -0.1,0 0,0 h 8.9 3 c 0.055,0 0.1,-0.045 0.1,-0.1 v -10 c 0,-0.055 -0.045,-0.1 -0.1,-0.1 h -2.9 c -0.1,0 0,0.1 0,0 v -5.8 c 0,-0.1 -0.1,0 0,0 h 2.9 c 0.055,0 0.1,-0.045 0.1,-0.1 v -6 c 0,-0.055 -0.045,-0.1 -0.1,-0.1 h -2.9 c -0.1,0 0,0.1 0,0 v -5.8 c 0,-0.1 -0.1,0 0,0 h 2.9 c 0.055,0 0.1,-0.045 0.1,-0.1 v -6 c 0,-0.055 -0.045,-0.1 -0.1,-0.1 h -2.9 c -0.1,0 0,0.1 0,0 v -5.8 c 0,-0.1 -0.1,0 0,0 h 2.9 c 0.055,0 0.1,-0.045 0.1,-0.1 v -6 c 0,-0.055 -0.045,-0.1 -0.1,-0.1 h -2.9 c -0.1,0 0,0.1 0,0 v -5.8 c 0,-0.1 -0.1,0 0,0 h 2.9 c 0.055,0 0.1,-0.045 0.1,-0.1 v -6 c 0,-0.055 -0.045,-0.1 -0.1,-0.1 h -2.9 c -0.1,0 0,0.1 0,0 v -5.8 c 0,-0.1 -0.1,0 0,0 h 2.9 c 0.055,0 0.1,-0.045 0.1,-0.1 v -6 c 0,-0.055 -0.045,-0.1 -0.1,-0.1 h -2.9 c -0.1,0 0,0.1 0,0 v -5.8 c 0,-0.1 -0.1,0 0,0 h 2.9 c 0.055,0 0.1,-0.045 0.1,-0.1 v -10 c 0,-0.055 -0.045,-0.1 -0.1,-0.1 h -3 -120 -3 c -0.055,0 -0.1,0.045 -0.1,0.1 v 10 c 0,0.055 0.045,0.1 0.1,0.1 H 13 c 0.1,0 0,-0.1 0,0 v 5.8 c 0,0.1 0.1,0 0,0 h -2.9 c -0.055,0 -0.1,0.045 -0.1,0.1 v 6 c 0,0.055 0.045,0.1 0.1,0.1 H 13 c 0.1,0 0,-0.1 0,0 v 5.8 c 0,0.1 0.1,0 0,0 h -2.9 c -0.055,0 -0.1,0.045 -0.1,0.1 v 6 c 0,0.055 0.045,0.1 0.1,0.1 H 13 c 0.1,0 0,-0.1 0,0 v 5.8 c 0,0.1 0.1,0 0,0 h -2.9 c -0.055,0 -0.1,0.045 -0.1,0.1 v 6 c 0,0.055 0.045,0.1 0.1,0.1 H 13 c 0.1,0 0,-0.1 0,0 v 5.8 c 0,0.1 0.1,0 0,0 h -2.9 c -0.055,0 -0.1,0.045 -0.1,0.1 v 6 c 0,0.055 0.045,0.1 0.1,0.1 H 13 c 0.1,0 0,-0.1 0,0 v 5.8 c 0,0.1 0.1,0 0,0 h -2.9 c -0.055,0 -0.1,0.045 -0.1,0.1 v 6 c 0,0.055 0.045,0.1 0.1,0.1 H 13 c 0.1,0 0,-0.1 0,0 v 5.8 c 0,0.1 0.1,0 0,0 h -2.9 c -0.055,0 -0.1,0.045 -0.1,0.1 v 10 c 0,0.055 0.045,0.1 0.1,0.1 z"
       stroke="#000000"
       stroke-width="0.2"
       id="path375" />
  </g>
  <g
     id="p-4"
     style="fill:none;stroke-linecap:round;stroke-linejoin:round"
     transform="rotate(90,146.19495,314.60505)">
    <path
       d="m 18.5,443.7 c 0,0.268 -0.077,0.531 -0.222,0.757 -0.145,0.226 -0.352,0.405 -0.596,0.516 -0.245,0.112 -0.516,0.151 -0.781,0.113 -0.266,-0.038 -0.515,-0.152 -0.718,-0.328 -0.203,-0.176 -0.351,-0.406 -0.426,-0.664 -0.076,-0.257 -0.076,-0.531 0,-0.788 0.075,-0.258 0.223,-0.488 0.426,-0.664 0.203,-0.176 0.452,-0.29 0.718,-0.328 0.265,-0.038 0.536,10e-4 0.781,0.113 0.244,0.111 0.451,0.29 0.596,0.516 0.145,0.226 0.222,0.489 0.222,0.757 z"
       stroke="#0000ff"
       stroke-width="0.2"
       id="path378" />
    <path
       d="m 17.1,450.8 h 10 9 c 0.055,0 0.1,-0.045 0.1,-0.1 v -2.9 c 0,-0.1 -0.1,0 0,0 H 42 c 0.1,0 0,-0.1 0,0 v 2.9 c 0,0.055 0.045,0.1 0.1,0.1 h 6 c 0.055,0 0.1,-0.045 0.1,-0.1 v -2.9 c 0,-0.1 -0.1,0 0,0 H 54 c 0.1,0 0,-0.1 0,0 v 2.9 c 0,0.055 0.045,0.1 0.1,0.1 h 6 c 0.055,0 0.1,-0.045 0.1,-0.1 v -2.9 c 0,-0.1 -0.1,0 0,0 H 66 c 0.1,0 0,-0.1 0,0 v 2.9 c 0,0.055 0.045,0.1 0.1,0.1 h 6 c 0.055,0 0.1,-0.045 0.1,-0.1 v -2.9 c 0,-0.1 -0.1,0 0,0 H 78 c 0.1,0 0,-0.1 0,0 v 2.9 c 0,0.055 0.045,0.1 0.1,0.1 h 6 c 0.055,0 0.1,-0.045 0.1,-0.1 v -2.9 c 0,-0.1 -0.1,0 0,0 H 90 c 0.1,0 0,-0.1 0,0 v 2.9 c 0,0.055 0.045,0.1 0.1,0.1 h 6 c 0.055,0 0.1,-0.045 0.1,-0.1 v -2.9 c 0,-0.1 -0.1,0 0,0 h 5.8 c 0.1,0 0,-0.1 0,0 v 2.9 c 0,0.055 0.045,0.1 0.1,0.1 h 6 c 0.055,0 0.1,-0.045 0.1,-0.1 v -2.9 c 0,-0.1 -0.1,0 0,0 h 5.8 c 0.1,0 0,-0.1 0,0 v 2.9 c 0,0.055 0.045,0.1 0.1,0.1 h 6 c 0.055,0 0.1,-0.045 0.1,-0.1 v -2.9 c 0,-0.1 -0.1,0 0,0 h 5.8 c 0.1,0 0,-0.1 0,0 v 2.9 c 0,0.055 0.045,0.1 0.1,0.1 h 6 c 0.055,0 0.1,-0.045 0.1,-0.1 v -2.9 c 0,-0.1 -0.1,0 0,0 h 5.8 c 0.1,0 0,-0.1 0,0 v 2.9 c 0,0.055 0.045,0.1 0.1,0.1 h 9 10 c 1.246,0 2.471,-0.328 3.55,-0.951 1.079,-0.623 1.976,-1.52 2.599,-2.599 0.623,-1.079 0.951,-2.304 0.951,-3.55 v -192 c 0,-1.246 -0.328,-2.471 -0.951,-3.55 -0.623,-1.079 -1.52,-1.976 -2.599,-2.599 -1.079,-0.623 -2.304,-0.951 -3.55,-0.951 h -10 -9 c -0.055,0 -0.1,0.045 -0.1,0.1 v 2.9 c 0,0.1 0.1,0 0,0 h -5.8 c -0.1,0 0,0.1 0,0 v -2.9 c 0,-0.055 -0.045,-0.1 -0.1,-0.1 h -6 c -0.055,0 -0.1,0.045 -0.1,0.1 v 2.9 c 0,0.1 0.1,0 0,0 h -5.8 c -0.1,0 0,0.1 0,0 v -2.9 c 0,-0.055 -0.045,-0.1 -0.1,-0.1 h -6 c -0.055,0 -0.1,0.045 -0.1,0.1 v 2.9 c 0,0.1 0.1,0 0,0 h -5.8 c -0.1,0 0,0.1 0,0 v -2.9 c 0,-0.055 -0.045,-0.1 -0.1,-0.1 h -6 c -0.055,0 -0.1,0.045 -0.1,0.1 v 2.9 c 0,0.1 0.1,0 0,0 h -5.8 c -0.1,0 0,0.1 0,0 v -2.9 c 0,-0.055 -0.045,-0.1 -0.1,-0.1 h -6 c -0.055,0 -0.1,0.045 -0.1,0.1 v 2.9 c 0,0.1 0.1,0 0,0 h -5.8 c -0.1,0 0,0.1 0,0 v -2.9 c 0,-0.055 -0.045,-0.1 -0.1,-0.1 h -6 c -0.055,0 -0.1,0.045 -0.1,0.1 v 2.9 c 0,0.1 0.1,0 0,0 h -5.8 c -0.1,0 0,0.1 0,0 v -2.9 c 0,-0.055 -0.045,-0.1 -0.1,-0.1 h -6 c -0.055,0 -0.1,0.045 -0.1,0.1 v 2.9 c 0,0.1 0.1,0 0,0 h -5.8 c -0.1,0 0,0.1 0,0 v -2.9 c 0,-0.055 -0.045,-0.1 -0.1,-0.1 h -6 c -0.055,0 -0.1,0.045 -0.1,0.1 v 2.9 c 0,0.1 0.1,0 0,0 h -5.8 c -0.1,0 0,0.1 0,0 v -2.9 c 0,-0.055 -0.045,-0.1 -0.1,-0.1 h -6 c -0.055,0 -0.1,0.045 -0.1,0.1 v 2.9 c 0,0.1 0.1,0 0,0 h -5.8 c -0.1,0 0,0.1 0,0 v -2.9 c 0,-0.055 -0.045,-0.1 -0.1,-0.1 h -9 -10 c -1.246,0 -2.471,0.328 -3.55,0.951 -1.079,0.623 -1.976,1.52 -2.599,2.599 C 10.328,249.229 10,250.454 10,251.7 v 192 c 0,1.246 0.328,2.471 0.951,3.55 0.623,1.079 1.52,1.976 2.599,2.599 1.079,0.623 2.304,0.951 3.55,0.951 z"
       stroke="#000000"
       stroke-width="0.2"
       id="path380" />
    <path
       d="m 157.1,442.3 c 0.268,0 0.531,0.077 0.757,0.222 0.226,0.145 0.405,0.352 0.516,0.596 0.112,0.245 0.151,0.516 0.113,0.781 -0.038,0.266 -0.152,0.515 -0.328,0.718 -0.176,0.203 -0.406,0.351 -0.664,0.426 -0.257,0.076 -0.531,0.076 -0.788,0 -0.258,-0.075 -0.488,-0.223 -0.664,-0.426 -0.176,-0.203 -0.29,-0.452 -0.328,-0.718 -0.038,-0.265 0.001,-0.536 0.113,-0.781 0.111,-0.244 0.29,-0.451 0.516,-0.596 0.226,-0.145 0.489,-0.222 0.757,-0.222 z"
       stroke="#0000ff"
       stroke-width="0.2"
       id="path382" />
    <path
       d="m 150.1,437.7 v 2.9 c 0,0.1 0.1,0 0,0 h -2.8 c -0.1,0 0,0.1 0,0 v -5.8 c 0,-0.1 -0.1,0 0,0 h 2.8 c 0.1,0 0,-0.1 0,0 z"
       stroke="#0000ff"
       stroke-width="0.2"
       id="path384" />
    <path
       d="m 150.1,425.7 v 2.9 c 0,0.1 0.1,0 0,0 h -2.8 c -0.1,0 0,0.1 0,0 v -5.8 c 0,-0.1 -0.1,0 0,0 h 2.8 c 0.1,0 0,-0.1 0,0 z"
       stroke="#0000ff"
       stroke-width="0.2"
       id="path386" />
    <path
       d="m 150.1,413.7 v 2.9 c 0,0.1 0.1,0 0,0 h -2.8 c -0.1,0 0,0.1 0,0 v -5.8 c 0,-0.1 -0.1,0 0,0 h 2.8 c 0.1,0 0,-0.1 0,0 z"
       stroke="#0000ff"
       stroke-width="0.2"
       id="path388" />
    <path
       d="m 150.1,401.7 v 2.9 c 0,0.1 0.1,0 0,0 h -2.8 c -0.1,0 0,0.1 0,0 v -5.8 c 0,-0.1 -0.1,0 0,0 h 2.8 c 0.1,0 0,-0.1 0,0 z"
       stroke="#0000ff"
       stroke-width="0.2"
       id="path390" />
    <path
       d="m 150.1,389.7 v 2.9 c 0,0.1 0.1,0 0,0 h -2.8 c -0.1,0 0,0.1 0,0 v -5.8 c 0,-0.1 -0.1,0 0,0 h 2.8 c 0.1,0 0,-0.1 0,0 z"
       stroke="#0000ff"
       stroke-width="0.2"
       id="path392" />
    <path
       d="m 150.1,377.7 v 2.9 c 0,0.1 0.1,0 0,0 h -2.8 c -0.1,0 0,0.1 0,0 v -5.8 c 0,-0.1 -0.1,0 0,0 h 2.8 c 0.1,0 0,-0.1 0,0 z"
       stroke="#0000ff"
       stroke-width="0.2"
       id="path394" />
    <path
       d="m 150.1,365.7 v 2.9 c 0,0.1 0.1,0 0,0 h -2.8 c -0.1,0 0,0.1 0,0 v -5.8 c 0,-0.1 -0.1,0 0,0 h 2.8 c 0.1,0 0,-0.1 0,0 z"
       stroke="#0000ff"
       stroke-width="0.2"
       id="path396" />
    <path
       d="m 150.1,353.7 v 2.9 c 0,0.1 0.1,0 0,0 h -2.8 c -0.1,0 0,0.1 0,0 v -5.8 c 0,-0.1 -0.1,0 0,0 h 2.8 c 0.1,0 0,-0.1 0,0 z"
       stroke="#0000ff"
       stroke-width="0.2"
       id="path398" />
    <path
       d="m 150.1,341.7 v 2.9 c 0,0.1 0.1,0 0,0 h -2.8 c -0.1,0 0,0.1 0,0 v -5.8 c 0,-0.1 -0.1,0 0,0 h 2.8 c 0.1,0 0,-0.1 0,0 z"
       stroke="#0000ff"
       stroke-width="0.2"
       id="path400" />
    <path
       d="m 150.1,329.7 v 2.9 c 0,0.1 0.1,0 0,0 h -2.8 c -0.1,0 0,0.1 0,0 v -5.8 c 0,-0.1 -0.1,0 0,0 h 2.8 c 0.1,0 0,-0.1 0,0 z"
       stroke="#0000ff"
       stroke-width="0.2"
       id="path402" />
    <path
       d="m 150.1,317.7 v 2.9 c 0,0.1 0.1,0 0,0 h -2.8 c -0.1,0 0,0.1 0,0 v -5.8 c 0,-0.1 -0.1,0 0,0 h 2.8 c 0.1,0 0,-0.1 0,0 z"
       stroke="#0000ff"
       stroke-width="0.2"
       id="path404" />
    <path
       d="m 150.1,305.7 v 2.9 c 0,0.1 0.1,0 0,0 h -2.8 c -0.1,0 0,0.1 0,0 v -5.8 c 0,-0.1 -0.1,0 0,0 h 2.8 c 0.1,0 0,-0.1 0,0 z"
       stroke="#0000ff"
       stroke-width="0.2"
       id="path406" />
    <path
       d="m 150.1,293.7 v 2.9 c 0,0.1 0.1,0 0,0 h -2.8 c -0.1,0 0,0.1 0,0 v -5.8 c 0,-0.1 -0.1,0 0,0 h 2.8 c 0.1,0 0,-0.1 0,0 z"
       stroke="#0000ff"
       stroke-width="0.2"
       id="path408" />
    <path
       d="m 150.1,281.7 v 2.9 c 0,0.1 0.1,0 0,0 h -2.8 c -0.1,0 0,0.1 0,0 v -5.8 c 0,-0.1 -0.1,0 0,0 h 2.8 c 0.1,0 0,-0.1 0,0 z"
       stroke="#0000ff"
       stroke-width="0.2"
       id="path410" />
    <path
       d="m 150.1,269.7 v 2.9 c 0,0.1 0.1,0 0,0 h -2.8 c -0.1,0 0,0.1 0,0 v -5.8 c 0,-0.1 -0.1,0 0,0 h 2.8 c 0.1,0 0,-0.1 0,0 z"
       stroke="#0000ff"
       stroke-width="0.2"
       id="path412" />
    <path
       d="m 150.1,257.7 v 2.9 c 0,0.1 0.1,0 0,0 h -2.8 c -0.1,0 0,0.1 0,0 v -5.8 c 0,-0.1 -0.1,0 0,0 h 2.8 c 0.1,0 0,-0.1 0,0 z"
       stroke="#0000ff"
       stroke-width="0.2"
       id="path414" />
    <path
       d="m 155.7,251.7 c 0,-0.268 0.077,-0.531 0.222,-0.757 0.145,-0.226 0.352,-0.405 0.596,-0.516 0.245,-0.112 0.516,-0.151 0.781,-0.113 0.266,0.038 0.515,0.152 0.718,0.328 0.203,0.176 0.351,0.406 0.426,0.664 0.076,0.257 0.076,0.531 0,0.788 -0.075,0.258 -0.223,0.488 -0.426,0.664 -0.203,0.176 -0.452,0.29 -0.718,0.328 -0.265,0.038 -0.536,-0.001 -0.781,-0.113 -0.244,-0.111 -0.451,-0.29 -0.596,-0.516 -0.145,-0.226 -0.222,-0.489 -0.222,-0.757 z"
       stroke="#0000ff"
       stroke-width="0.2"
       id="path416" />
    <path
       d="m 17.1,253.1 c -0.268,0 -0.531,-0.077 -0.757,-0.222 -0.226,-0.145 -0.405,-0.352 -0.516,-0.596 -0.112,-0.245 -0.151,-0.516 -0.113,-0.781 0.038,-0.266 0.152,-0.515 0.328,-0.718 0.176,-0.203 0.406,-0.351 0.664,-0.426 0.257,-0.076 0.531,-0.076 0.788,0 0.258,0.075 0.488,0.223 0.664,0.426 0.176,0.203 0.29,0.452 0.328,0.718 0.038,0.265 -0.001,0.536 -0.113,0.781 -0.111,0.244 -0.29,0.451 -0.516,0.596 -0.226,0.145 -0.489,0.222 -0.757,0.222 z"
       stroke="#0000ff"
       stroke-width="0.2"
       id="path418" />
    <path
       d="m 24.1,257.7 v -2.9 c 0,-0.1 -0.1,0 0,0 h 2.8 c 0.1,0 0,-0.1 0,0 v 5.8 c 0,0.1 0.1,0 0,0 h -2.8 c -0.1,0 0,0.1 0,0 z"
       stroke="#0000ff"
       stroke-width="0.2"
       id="path420" />
    <path
       d="m 24.1,269.7 v -2.9 c 0,-0.1 -0.1,0 0,0 h 2.8 c 0.1,0 0,-0.1 0,0 v 5.8 c 0,0.1 0.1,0 0,0 h -2.8 c -0.1,0 0,0.1 0,0 z"
       stroke="#0000ff"
       stroke-width="0.2"
       id="path422" />
    <path
       d="m 24.1,281.7 v -2.9 c 0,-0.1 -0.1,0 0,0 h 2.8 c 0.1,0 0,-0.1 0,0 v 5.8 c 0,0.1 0.1,0 0,0 h -2.8 c -0.1,0 0,0.1 0,0 z"
       stroke="#0000ff"
       stroke-width="0.2"
       id="path424" />
    <path
       d="m 24.1,293.7 v -2.9 c 0,-0.1 -0.1,0 0,0 h 2.8 c 0.1,0 0,-0.1 0,0 v 5.8 c 0,0.1 0.1,0 0,0 h -2.8 c -0.1,0 0,0.1 0,0 z"
       stroke="#0000ff"
       stroke-width="0.2"
       id="path426" />
    <path
       d="m 24.1,305.7 v -2.9 c 0,-0.1 -0.1,0 0,0 h 2.8 c 0.1,0 0,-0.1 0,0 v 5.8 c 0,0.1 0.1,0 0,0 h -2.8 c -0.1,0 0,0.1 0,0 z"
       stroke="#0000ff"
       stroke-width="0.2"
       id="path428" />
    <path
       d="m 24.1,317.7 v -2.9 c 0,-0.1 -0.1,0 0,0 h 2.8 c 0.1,0 0,-0.1 0,0 v 5.8 c 0,0.1 0.1,0 0,0 h -2.8 c -0.1,0 0,0.1 0,0 z"
       stroke="#0000ff"
       stroke-width="0.2"
       id="path430" />
    <path
       d="m 24.1,329.7 v -2.9 c 0,-0.1 -0.1,0 0,0 h 2.8 c 0.1,0 0,-0.1 0,0 v 5.8 c 0,0.1 0.1,0 0,0 h -2.8 c -0.1,0 0,0.1 0,0 z"
       stroke="#0000ff"
       stroke-width="0.2"
       id="path432" />
    <path
       d="m 24.1,341.7 v -2.9 c 0,-0.1 -0.1,0 0,0 h 2.8 c 0.1,0 0,-0.1 0,0 v 5.8 c 0,0.1 0.1,0 0,0 h -2.8 c -0.1,0 0,0.1 0,0 z"
       stroke="#0000ff"
       stroke-width="0.2"
       id="path434" />
    <path
       d="m 24.1,353.7 v -2.9 c 0,-0.1 -0.1,0 0,0 h 2.8 c 0.1,0 0,-0.1 0,0 v 5.8 c 0,0.1 0.1,0 0,0 h -2.8 c -0.1,0 0,0.1 0,0 z"
       stroke="#0000ff"
       stroke-width="0.2"
       id="path436" />
    <path
       d="m 24.1,365.7 v -2.9 c 0,-0.1 -0.1,0 0,0 h 2.8 c 0.1,0 0,-0.1 0,0 v 5.8 c 0,0.1 0.1,0 0,0 h -2.8 c -0.1,0 0,0.1 0,0 z"
       stroke="#0000ff"
       stroke-width="0.2"
       id="path438" />
    <path
       d="m 24.1,377.7 v -2.9 c 0,-0.1 -0.1,0 0,0 h 2.8 c 0.1,0 0,-0.1 0,0 v 5.8 c 0,0.1 0.1,0 0,0 h -2.8 c -0.1,0 0,0.1 0,0 z"
       stroke="#0000ff"
       stroke-width="0.2"
       id="path440" />
    <path
       d="m 24.1,389.7 v -2.9 c 0,-0.1 -0.1,0 0,0 h 2.8 c 0.1,0 0,-0.1 0,0 v 5.8 c 0,0.1 0.1,0 0,0 h -2.8 c -0.1,0 0,0.1 0,0 z"
       stroke="#0000ff"
       stroke-width="0.2"
       id="path442" />
    <path
       d="m 24.1,401.7 v -2.9 c 0,-0.1 -0.1,0 0,0 h 2.8 c 0.1,0 0,-0.1 0,0 v 5.8 c 0,0.1 0.1,0 0,0 h -2.8 c -0.1,0 0,0.1 0,0 z"
       stroke="#0000ff"
       stroke-width="0.2"
       id="path444" />
    <path
       d="m 24.1,413.7 v -2.9 c 0,-0.1 -0.1,0 0,0 h 2.8 c 0.1,0 0,-0.1 0,0 v 5.8 c 0,0.1 0.1,0 0,0 h -2.8 c -0.1,0 0,0.1 0,0 z"
       stroke="#0000ff"
       stroke-width="0.2"
       id="path446" />
    <path
       d="m 24.1,425.7 v -2.9 c 0,-0.1 -0.1,0 0,0 h 2.8 c 0.1,0 0,-0.1 0,0 v 5.8 c 0,0.1 0.1,0 0,0 h -2.8 c -0.1,0 0,0.1 0,0 z"
       stroke="#0000ff"
       stroke-width="0.2"
       id="path448" />
    <path
       d="m 24.1,437.7 v -2.9 c 0,-0.1 -0.1,0 0,0 h 2.8 c 0.1,0 0,-0.1 0,0 v 5.8 c 0,0.1 0.1,0 0,0 h -2.8 c -0.1,0 0,0.1 0,0 z"
       stroke="#0000ff"
       stroke-width="0.2"
       id="path450" />
  </g>
  <g
     id="p-5"
     style="fill:none;stroke-linecap:round;stroke-linejoin:round"
     transform="rotate(90,107.65998,145.44002)">
    <path
       d="m 19.833,234.667 c 0,0.268 -0.077,0.531 -0.222,0.757 -0.145,0.225 -0.352,0.405 -0.596,0.516 -0.244,0.112 -0.515,0.151 -0.781,0.112 -0.266,-0.038 -0.515,-0.152 -0.717,-0.327 -0.203,-0.176 -0.351,-0.406 -0.427,-0.664 -0.076,-0.257 -0.076,-0.531 0,-0.789 0.076,-0.257 0.224,-0.488 0.427,-0.663 0.202,-0.176 0.451,-0.29 0.717,-0.328 0.266,-0.038 0.537,0.001 0.781,0.112 0.244,0.112 0.451,0.291 0.596,0.517 0.145,0.226 0.222,0.488 0.222,0.757 z"
       stroke="#0000ff"
       stroke-width="0.2"
       id="path453" />
    <path
       d="m 10.1,243.1 h 120 c 0.055,0 0.1,-0.045 0.1,-0.1 V 43 c 0,-0.055 -0.045,-0.1 -0.1,-0.1 H 10.1 C 10.045,42.9 10,42.945 10,43 v 200 c 0,0.055 0.045,0.1 0.1,0.1 z"
       stroke="#000000"
       stroke-width="0.2"
       id="path455" />
    <path
       d="m 121.767,233.267 c 0.268,0 0.531,0.077 0.757,0.222 0.225,0.145 0.405,0.352 0.516,0.596 0.112,0.244 0.151,0.515 0.112,0.781 -0.038,0.266 -0.152,0.515 -0.327,0.717 -0.176,0.203 -0.406,0.351 -0.664,0.427 -0.257,0.076 -0.531,0.076 -0.789,0 -0.257,-0.076 -0.488,-0.224 -0.663,-0.427 -0.176,-0.202 -0.29,-0.451 -0.328,-0.717 -0.038,-0.266 0.001,-0.537 0.112,-0.781 0.112,-0.244 0.291,-0.451 0.517,-0.596 0.226,-0.145 0.488,-0.222 0.757,-0.222 z"
       stroke="#0000ff"
       stroke-width="0.2"
       id="path457" />
    <path
       d="m 120.367,51.333 c 0,-0.268 0.077,-0.531 0.222,-0.757 0.145,-0.225 0.352,-0.405 0.596,-0.516 0.244,-0.112 0.515,-0.151 0.781,-0.112 0.266,0.038 0.515,0.152 0.717,0.327 0.203,0.176 0.351,0.406 0.427,0.664 0.076,0.257 0.076,0.531 0,0.789 -0.076,0.257 -0.224,0.488 -0.427,0.663 -0.202,0.176 -0.451,0.29 -0.717,0.328 -0.266,0.038 -0.537,-10e-4 -0.781,-0.112 -0.244,-0.112 -0.451,-0.291 -0.596,-0.517 -0.145,-0.226 -0.222,-0.488 -0.222,-0.757 z"
       stroke="#0000ff"
       stroke-width="0.2"
       id="path459" />
    <path
       d="m 18.433,52.733 c -0.268,0 -0.531,-0.077 -0.757,-0.222 -0.225,-0.145 -0.405,-0.352 -0.516,-0.596 -0.112,-0.244 -0.151,-0.515 -0.112,-0.781 0.038,-0.266 0.152,-0.515 0.327,-0.717 0.176,-0.203 0.406,-0.351 0.664,-0.427 0.257,-0.076 0.531,-0.076 0.789,0 0.257,0.076 0.488,0.224 0.663,0.427 0.176,0.202 0.29,0.451 0.328,0.717 0.038,0.266 -10e-4,0.537 -0.112,0.781 -0.112,0.244 -0.291,0.451 -0.517,0.596 -0.226,0.145 -0.488,0.222 -0.757,0.222 z"
       stroke="#0000ff"
       stroke-width="0.2"
       id="path461" />
  </g>
  <g
     id="p-6"
     style="fill:none;stroke-linecap:round;stroke-linejoin:round;">
    <path
       d="M 17.908 38.400 H 27.308 C 27.408 38.400 27.308 38.300 27.308 38.400 V 41.300 C 27.308 41.355 27.353 41.400 27.408 41.400 H 33.408 C 33.464 41.400 33.508 41.355 33.508 41.300 V 38.400 C 33.508 38.300 33.408 38.400 33.508 38.400 H 42.908 C 42.964 38.400 43.008 38.355 43.008 38.300 V 28.900 C 43.008 28.800 42.908 28.900 43.008 28.900 H 45.908 C 45.964 28.900 46.008 28.855 46.008 28.800 V 22.800 C 46.008 22.745 45.964 22.700 45.908 22.700 H 43.008 C 42.908 22.700 43.008 22.800 43.008 22.700 V 13.300 C 43.008 13.245 42.964 13.200 42.908 13.200 C 42.882 13.200 42.856 13.211 42.838 13.229 L 17.838 38.229 C 17.819 38.248 17.808 38.273 17.808 38.300 C 17.808 38.355 17.853 38.400 17.908 38.400 Z"
       stroke="rgb(0,0,0)"
       stroke-width="0.20"
       id="path464" />
    <path
       d="M 34.575 29.067 C 34.748 29.067 34.916 29.116 35.062 29.210 C 35.207 29.303 35.322 29.436 35.394 29.593 C 35.465 29.750 35.490 29.924 35.466 30.095 C 35.441 30.266 35.368 30.426 35.255 30.556 C 35.142 30.686 34.994 30.782 34.829 30.830 C 34.663 30.879 34.487 30.879 34.321 30.830 C 34.156 30.782 34.008 30.686 33.895 30.556 C 33.782 30.426 33.709 30.266 33.684 30.095 C 33.660 29.924 33.685 29.750 33.756 29.593 C 33.828 29.436 33.943 29.303 34.088 29.210 C 34.234 29.116 34.402 29.067 34.575 29.067 Z"
       stroke="rgb(0,0,255)"
       stroke-width="0.20"
       id="path466" />
    <path
       d="M 38.100 13.000 H 28.700 C 28.600 13.000 28.700 13.100 28.700 13.000 V 10.100 C 28.700 10.045 28.655 10.000 28.600 10.000 H 22.600 C 22.545 10.000 22.500 10.045 22.500 10.100 V 13.000 C 22.500 13.100 22.600 13.000 22.500 13.000 H 13.100 C 13.045 13.000 13.000 13.045 13.000 13.100 V 22.500 C 13.000 22.600 13.100 22.500 13.000 22.500 H 10.100 C 10.045 22.500 10.000 22.545 10.000 22.600 V 28.600 C 10.000 28.655 10.045 28.700 10.100 28.700 H 13.000 C 13.100 28.700 13.000 28.600 13.000 28.700 V 38.100 C 13.000 38.155 13.045 38.200 13.100 38.200 C 13.127 38.200 13.152 38.189 13.171 38.171 L 38.171 13.171 C 38.189 13.152 38.200 13.127 38.200 13.100 C 38.200 13.045 38.155 13.000 38.100 13.000 Z"
       stroke="rgb(0,0,0)"
       stroke-width="0.20"
       id="path468" />
    <path
       d="M 21.433 22.333 C 21.261 22.333 21.092 22.284 20.947 22.190 C 20.802 22.097 20.686 21.964 20.615 21.807 C 20.543 21.650 20.518 21.476 20.542 21.305 C 20.567 21.134 20.640 20.974 20.753 20.844 C 20.866 20.714 21.014 20.618 21.180 20.570 C 21.345 20.521 21.521 20.521 21.687 20.570 C 21.852 20.618 22.001 20.714 22.114 20.844 C 22.226 20.974 22.300 21.134 22.324 21.305 C 22.349 21.476 22.324 21.650 22.252 21.807 C 22.180 21.964 22.065 22.097 21.920 22.190 C 21.775 22.284 21.606 22.333 21.433 22.333 Z"
       stroke="rgb(0,0,255)"
       stroke-width="0.20"
       id="path470" />
    <path
       d="M 55.417 38.400 H 64.817 C 64.917 38.400 64.817 38.300 64.817 38.400 V 41.300 C 64.817 41.355 64.861 41.400 64.917 41.400 H 70.917 C 70.972 41.400 71.017 41.355 71.017 41.300 V 38.400 C 71.017 38.300 70.917 38.400 71.017 38.400 H 80.417 C 80.472 38.400 80.517 38.355 80.517 38.300 V 28.900 C 80.517 28.800 80.417 28.900 80.517 28.900 H 83.417 C 83.472 28.900 83.517 28.855 83.517 28.800 V 22.800 C 83.517 22.745 83.472 22.700 83.417 22.700 H 80.517 C 80.417 22.700 80.517 22.800 80.517 22.700 V 13.300 C 80.517 13.245 80.472 13.200 80.417 13.200 C 80.390 13.200 80.365 13.211 80.346 13.229 L 55.346 38.229 C 55.327 38.248 55.317 38.273 55.317 38.300 C 55.317 38.355 55.361 38.400 55.417 38.400 Z"
       stroke="rgb(0,0,0)"
       stroke-width="0.20"
       id="path472" />
    <path
       d="M 72.083 29.067 C 72.256 29.067 72.425 29.116 72.570 29.210 C 72.715 29.303 72.830 29.436 72.902 29.593 C 72.974 29.750 72.999 29.924 72.974 30.095 C 72.950 30.266 72.876 30.426 72.763 30.556 C 72.651 30.686 72.502 30.782 72.337 30.830 C 72.171 30.879 71.995 30.879 71.830 30.830 C 71.664 30.782 71.516 30.686 71.403 30.556 C 71.290 30.426 71.217 30.266 71.192 30.095 C 71.168 29.924 71.193 29.750 71.265 29.593 C 71.336 29.436 71.452 29.303 71.597 29.210 C 71.742 29.116 71.911 29.067 72.083 29.067 Z"
       stroke="rgb(0,0,255)"
       stroke-width="0.20"
       id="path474" />
    <path
       d="M 75.608 13.000 H 66.208 C 66.108 13.000 66.208 13.100 66.208 13.000 V 10.100 C 66.208 10.045 66.164 10.000 66.108 10.000 H 60.108 C 60.053 10.000 60.008 10.045 60.008 10.100 V 13.000 C 60.008 13.100 60.108 13.000 60.008 13.000 H 50.608 C 50.553 13.000 50.508 13.045 50.508 13.100 V 22.500 C 50.508 22.600 50.608 22.500 50.508 22.500 H 47.608 C 47.553 22.500 47.508 22.545 47.508 22.600 V 28.600 C 47.508 28.655 47.553 28.700 47.608 28.700 H 50.508 C 50.608 28.700 50.508 28.600 50.508 28.700 V 38.100 C 50.508 38.155 50.553 38.200 50.608 38.200 C 50.635 38.200 50.660 38.189 50.679 38.171 L 75.679 13.171 C 75.698 13.152 75.708 13.127 75.708 13.100 C 75.708 13.045 75.664 13.000 75.608 13.000 Z"
       stroke="rgb(0,0,0)"
       stroke-width="0.20"
       id="path476" />
    <path
       d="M 58.942 22.333 C 58.769 22.333 58.600 22.284 58.455 22.190 C 58.310 22.097 58.195 21.964 58.123 21.807 C 58.051 21.650 58.026 21.476 58.051 21.305 C 58.075 21.134 58.148 20.974 58.261 20.844 C 58.374 20.714 58.523 20.618 58.688 20.570 C 58.854 20.521 59.030 20.521 59.195 20.570 C 59.361 20.618 59.509 20.714 59.622 20.844 C 59.735 20.974 59.808 21.134 59.832 21.305 C 59.857 21.476 59.832 21.650 59.760 21.807 C 59.689 21.964 59.573 22.097 59.428 22.190 C 59.283 22.284 59.114 22.333 58.942 22.333 Z"
       stroke="rgb(0,0,255)"
       stroke-width="0.20"
       id="path478" />
  </g>
  <g
     id="g3358">
    <rect
       style="opacity:0.390836;fill:none;stroke:#0000ff;stroke-width:0.1;stroke-opacity:1"
       id="rect2546"
       width="71"
       height="24"
       x="74.599998"
       y="60.519485" />
    <text
       xml:space="preserve"
       transform="matrix(0.26458333,0,0,0.26458333,-6.8758042,-8.1362276)"
       id="text986"
       style="font-style:normal;font-weight:normal;font-size:48px;line-height:1.25;font-family:sans-serif;white-space:pre;shape-inside:url(#rect988);display:inline;fill:#ff0000;fill-opacity:1;stroke:none"><tspan
         x="98.8125"
         y="423.89648"
         id="tspan511">Want to host new members?</tspan></text>
    <g
       id="g1837">
      <g
         id="g1814"
         transform="translate(-189.68112,-13.199378)">
        <circle
           style="fill:none;stroke:#0000ff;stroke-width:0.1;stroke-dasharray:none;stroke-opacity:1"
           id="path1150"
           cx="252.67801"
           cy="154.43997"
           r="14" />
        <circle
           style="fill:none;stroke:#0000ff;stroke-width:0.0427046;stroke-dasharray:none;stroke-opacity:1"
           id="path1150-36"
           cx="310.98105"
           cy="426.11301"
           r="5.9786477" />
        <text
           xml:space="preserve"
           transform="matrix(0.26458333,0,0,0.26458333,-4.8442533,20.815932)"
           id="text1746"
           style="font-style:normal;font-weight:normal;font-size:32px;line-height:1.25;font-family:sans-serif;white-space:pre;shape-inside:url(#rect1748);display:inline;fill:#ff0000;fill-opacity:1;stroke:none"><tspan
             x="912.67188"
             y="426.39453"
             id="tspan513">2 hours</tspan></text>
      </g>
      <g
         id="g1819"
         transform="translate(-183.26747,-13.199378)">
        <circle
           style="fill:none;stroke:#0000ff;stroke-width:0.1;stroke-dasharray:none;stroke-opacity:1"
           id="path1150-3"
           cx="293.353"
           cy="154.43997"
           r="14" />
        <text
           xml:space="preserve"
           transform="matrix(0.26458333,0,0,0.26458333,35.934087,20.815932)"
           id="text1746-5"
           style="font-style:normal;font-weight:normal;font-size:32px;line-height:1.25;font-family:sans-serif;white-space:pre;shape-inside:url(#rect1748-7);display:inline;fill:#ff0000;fill-opacity:1;stroke:none"><tspan
             x="912.67188"
             y="426.39453"
             id="tspan515">4 hours</tspan></text>
      </g>
      <g
         id="g1824"
         transform="translate(-176.83935,-13.199378)">
        <circle
           style="fill:none;stroke:#0000ff;stroke-width:0.1;stroke-dasharray:none;stroke-opacity:1"
           id="path1150-6"
           cx="334.02798"
           cy="154.43997"
           r="14" />
        <text
           xml:space="preserve"
           transform="matrix(0.26458333,0,0,0.26458333,76.520192,20.815932)"
           id="text1746-56"
           style="font-style:normal;font-weight:normal;font-size:32px;line-height:1.25;font-family:sans-serif;white-space:pre;shape-inside:url(#rect1748-3);display:inline;fill:#000000;fill-opacity:1;stroke:none"><tspan
             x="912.67188"
             y="426.39453"
             id="tspan519"><tspan
               style="fill:#ff0000"
               id="tspan517">6 hours</tspan></tspan></text>
      </g>
    </g>
  </g>
  <text
     xml:space="preserve"
     transform="scale(0.26458333)"
     id="text1839"
     style="font-style:normal;font-weight:normal;font-size:40px;line-height:1.25;font-family:sans-serif;white-space:pre;shape-inside:url(#rect1841);display:inline;fill:#000000;fill-opacity:1;stroke:none" />
  <text
     xml:space="preserve"
     style="font-style:normal;font-weight:normal;font-size:5.64444px;line-height:1.25;font-family:sans-serif;fill:#000000;fill-opacity:1;stroke:none;stroke-width:0.264583"
     x="106.83443"
     y="303.01794"
     id="text1847"><tspan
       sodipodi:role="line"
       id="tspan1845"
       style="font-size:5.64444px;fill:#ff0000;stroke-width:0.264583"
       x="106.83443"
       y="303.01794">github.com/Protospace/vanguard</tspan></text>
</svg>
